<?xml version="1.0" encoding="UTF-8"?><svg id="Layer_1" xmlns="http://www.w3.org/2000/svg" viewBox="0 0 706.92 299.25"><defs><style>.cls-1{fill:#528ef6;}</style></defs><g id="a"><circle class="cls-1" cx="502.04" cy="33.67" r="33.67"/><g><path class="cls-1" d="m212.96,209.04v-119.74c0-2.99-2.42-5.41-5.41-5.41h-62.04c-2.99,0-5.41,2.42-5.41,5.41v112.28c0,15.92-15.05,28.82-33.62,28.82s-33.62-12.9-33.62-28.82v-112.28c0-2.99-2.42-5.41-5.41-5.41H5.45c-3,0-5.43,2.43-5.41,5.44.15,20.63.64,93.61-.04,106.64.8,80.86,68.05,103.27,109.87,103.27,105.87-11.21,103.08-90.21,103.08-90.21h0Z"/><rect x="469.12" y="82.51" width="65.85" height="216.74" rx="1.76" ry="1.76"/><path d="m335.36,79.77c-70.84-.67-126.34,65.94-106.51,139.82,9.66,35.99,37.7,64.5,73.55,74.69,18.91,5.38,37.37,5.76,54.37,2.22,1.17-.24,2.01-1.3,2.01-2.5v-58.59c0-1.86-1.94-3.1-3.62-2.3-6.4,3.05-13.56,4.75-21.13,4.71-25.56-.14-46.92-20.52-48.2-46.06-1.43-28.75,22.16-52.36,50.91-50.96,25.4,1.24,45.75,22.37,46.1,47.8.07,5.31-.71,10.43-2.22,15.22v84.72c37.69-17.62,63.69-56.05,63.2-100.52-.66-59.31-49.15-107.71-108.46-108.27v.02Z"/><rect x="379.95" y=".44" width="65.85" height="298.37" rx="1.76" ry="1.76"/><rect x="557.3" width="65.85" height="299.25" rx="1.76" ry="1.76"/><rect x="557.3" y="232.96" width="149.62" height="65.85" rx="1.76" ry="1.76"/></g></g></svg>